<?xml version="1.0" encoding="UTF-8" standalone="no"?>
<!-- Created with Inkscape (http://www.inkscape.org/) -->

<svg
   width="127.28405"
   height="74.804825"
   viewBox="0 0 33.677238 19.79211"
   version="1.1"
   id="svg1"
   xmlns:inkscape="http://www.inkscape.org/namespaces/inkscape"
   xmlns:sodipodi="http://sodipodi.sourceforge.net/DTD/sodipodi-0.dtd"
   xmlns="http://www.w3.org/2000/svg"
   xmlns:svg="http://www.w3.org/2000/svg">
  <sodipodi:namedview
     id="namedview1"
     pagecolor="#ffffff"
     bordercolor="#000000"
     borderopacity="0.25"
     inkscape:showpageshadow="2"
     inkscape:pageopacity="0.0"
     inkscape:pagecheckerboard="true"
     inkscape:deskcolor="#d1d1d1"
     inkscape:document-units="px"
     showborder="false"
     inkscape:zoom="0.71713664"
     inkscape:cx="21.613733"
     inkscape:cy="838.75229"
     inkscape:window-width="1920"
     inkscape:window-height="1011"
     inkscape:window-x="0"
     inkscape:window-y="32"
     inkscape:window-maximized="1"
     inkscape:current-layer="layer1" />
  <defs
     id="defs1" />
  <g
     inkscape:label="Layer 1"
     inkscape:groupmode="layer"
     id="layer1"
     transform="translate(-95.506763,-316.25612)">
    <path
       style="font-size:10.5833px;font-family:'Permanent Marker';-inkscape-font-specification:'Permanent Marker, Normal';fill:#f9f9f9;stroke:#000000;stroke-width:1.32292;stroke-dasharray:none;stroke-opacity:1"
       d="m 96.915147,334.26268 q -0.07151,0.0238 -0.09537,-0.0478 -0.02383,-0.0715 -0.02383,-0.14302 0.02383,-0.0715 0.07154,-0.11927 0.07154,-0.0478 0.166905,0 -0.309955,-0.3815 -0.405325,-0.69143 -0.07154,-0.30996 -0.309952,-0.76297 0.07154,-0.0715 0.09537,-0.19078 0.02383,-0.14303 0.07154,-0.26227 0.02383,-0.11927 0.07154,-0.16679 0.07154,-0.0715 0.166905,0.0238 -0.04768,-0.26227 0,-0.42918 0.04768,-0.16679 0.09537,-0.30995 0.07154,-0.14303 0.09537,-0.28611 0.02385,-0.14303 -0.07151,-0.33378 0.453006,-0.61992 0.596063,-1.3352 0.143051,-0.73911 0.166905,-1.33517 0.214589,-0.21454 0.357636,-0.57223 0.166905,-0.35764 0.238426,-0.73911 0.07154,-0.38147 0.07154,-0.73912 0,-0.38149 -0.09537,-0.59606 0.02383,-0.0953 0.09537,-0.0953 0.09537,-0.0238 0.214589,0 0.166905,-0.9537 0.214589,-2.12197 0.07154,-1.16829 0.238426,-2.24121 0.190736,-1.09675 0.596063,-1.9074 0.405324,-0.83448 1.287493,-1.0729 0.16691,0.59606 0.42917,1.04907 0.28611,0.453 0.59606,0.88216 0.3338,0.42918 0.66759,0.85833 0.3338,0.42918 0.61991,0.9537 -0.0238,0.54838 -0.11922,1.26366 -0.0715,0.71528 -0.21459,1.4544 -0.11922,0.73911 -0.26227,1.43056 -0.11922,0.69143 -0.23842,1.16827 0.0238,0.11926 0.1669,0.16702 0.14305,0.0238 0.0477,0.26227 0.69144,-0.16679 1.43055,-0.30996 0.76297,-0.16702 1.47824,-0.30995 0.73912,-0.16703 1.43055,-0.38148 0.71528,-0.21454 1.33518,-0.52454 0.14306,-1.14444 0.35764,-2.26504 0.21459,-1.12059 0.0477,-2.26505 0.14305,-0.11926 0.23843,-0.2861 0.0954,-0.16702 0.28611,-0.21454 -0.14305,-0.54838 -0.11922,-1.14444 0.0238,-0.61991 0.19073,-1.14444 0.19074,-0.52454 0.54838,-0.90601 0.35764,-0.40533 0.88217,-0.52455 0.30996,0.45301 0.54838,0.97755 0.23843,0.52453 0.47685,1.07293 0.23843,0.52452 0.5007,1.00138 0.28611,0.47684 0.71527,0.81063 0.0715,0.8345 0.11922,1.71666 0.0477,0.85834 0.0715,1.78821 -0.21459,1.0729 -0.50069,2.09814 -0.26227,1.00138 -0.38148,2.14582 -0.19073,0.21454 -0.30995,0.52454 -0.11923,0.28611 -0.23843,0.59606 -0.0954,0.28611 -0.23842,0.57223 -0.14306,0.28611 -0.35764,0.47684 0.0954,0.33379 0.0239,0.64375 -0.0477,0.2861 0.1669,0.69142 0.0477,0.73914 -0.19073,1.23983 -0.21459,0.47684 -0.61991,0.83448 -0.38148,0.33379 -0.90601,0.54838 -0.5007,0.19078 -1.00139,0.35764 -0.23843,-0.14303 -0.45301,-0.2861 -0.19073,-0.16679 -0.47685,-0.23842 l 0.11922,-0.21455 q -0.47685,-0.47686 -0.83449,-1.00138 -0.33379,-0.54838 -0.30995,-1.23983 0,-0.0238 0.0477,-0.30993 0.0477,-0.30996 0.0954,-0.64377 0.0715,-0.33379 0.11922,-0.61989 0.0715,-0.30996 0.0715,-0.33381 -0.66759,0.0715 -1.38286,0.30996 -0.71528,0.23841 -1.40671,0.54837 -0.66759,0.28613 -1.26366,0.61992 -0.57222,0.30995 -0.92986,0.52454 0,0.0715 -0.11922,0.4053 -0.11922,0.33381 -0.28611,0.71528 -0.1669,0.35765 -0.38148,0.64375 -0.19073,0.28613 -0.40532,0.26227 0.0477,0.11927 0.0954,0.19078 0.0477,0.0478 0,0.21455 -0.40533,0.11926 -0.73912,0.30995 -0.309952,0.19078 -0.643749,0.30996 -0.333796,0.14303 -0.739119,0.11927 -0.38148,0 -0.929859,-0.28611 0,-0.16702 -0.143052,-0.2861 -0.143051,-0.14303 -0.309954,-0.23842 -0.143052,-0.0955 -0.262266,-0.16702 -0.119221,-0.0715 -0.119221,-0.14303 z m 17.977273,-0.0715 q -0.0954,-0.0953 -0.16691,-0.21454 -0.0715,-0.14303 -0.11922,-0.35762 -0.33379,-0.40532 -0.52453,-0.92987 -0.19074,-0.52454 -0.26227,-1.07292 -0.0715,-0.57221 -0.0238,-1.14444 0.0477,-0.5722 0.1669,-1.0729 0.0715,-0.23844 0.11922,-0.50069 0.11922,-0.45301 0.23843,-0.88219 0.11922,-0.453 0.35764,-0.73911 -0.0954,-0.26227 0.0238,-0.57223 0.11922,-0.30995 0.23842,-0.5722 0.0477,-0.0715 0.0715,-0.11927 0.0238,-0.0715 0.0477,-0.11927 0.28611,-0.83448 0.54838,-1.59744 0.28611,-0.7868 0.54837,-1.50208 0.47685,-1.31134 0.90602,-2.575 0.45301,-1.26366 0.81065,-2.6942 0.19073,-0.14303 0.33379,-0.19078 0.0477,-0.0238 0.11922,-0.0478 0.0715,-0.0238 0.16691,-0.0238 0.50069,0.26227 1.16828,0.50069 0.69144,0.21454 1.16829,0.21454 l 0.40532,0.35764 q 0.30995,0.35764 0.52454,0.76297 0.23842,0.38147 0.14305,1.00138 -0.14305,0.21454 -0.23843,0.26225 -0.14305,0.5484 -0.30995,0.97756 -0.16691,0.40532 -0.33379,0.78679 -0.19074,0.42918 -0.35764,0.85834 -0.16691,0.42917 -0.28611,1.04906 -0.14306,0.16702 -0.19074,0.28613 -0.0238,0.11927 -0.0715,0.23842 -0.0477,0.14303 -0.11922,0.30996 -0.0715,0.14303 -0.21459,0.26225 -0.0954,0.73913 -0.28611,1.21597 -0.19073,0.45301 -0.38148,0.90602 -0.3338,0.8345 -0.61991,1.66898 -0.28611,0.81065 -0.33379,1.85972 0.28611,-0.0715 0.52453,-0.0715 0.30996,0 0.59607,0.0955 0.85833,-0.42918 1.85971,-0.52455 1.02523,-0.0953 2.02662,-0.11926 0.83449,0 1.54976,-0.0715 0.23843,0.16679 0.30996,0.19078 0.0715,0 0.23842,0 0.0715,0 0.14305,0 0.0715,0 0.19074,0.0238 0.33379,0.33378 0.64375,0.47683 0.30995,0.11927 0.66759,0.23842 0.30995,0.11927 0.59606,0.26228 0.30995,0.11926 0.59607,0.33378 l 0.21458,1.21598 q 0.19074,0.26227 0.16691,0.35764 0,0.19078 -0.0954,0.33379 l 0.0477,0.30995 q -0.45301,0.0953 -0.59607,0.21455 -0.14305,0.0953 -0.30995,0.26227 -0.26227,0.0238 -0.50069,0.0238 -0.47685,0 -0.97755,0.14303 -0.71527,-0.26225 -1.5736,-0.26225 -0.3338,0 -0.69144,0.0238 -0.33379,0.0238 -0.66759,0.0715 -0.35764,0.0478 -0.71527,0.0953 -0.35764,0.0238 -0.71528,0.0238 -0.28611,0.0478 -0.40532,0.0715 -0.11922,0.0238 -0.23843,0.0715 -0.81064,0.26225 -1.76434,0.52452 -0.92986,0.26228 -1.88356,0.26228 -1.40671,0 -2.26505,-0.71529 -0.0954,-0.21454 -0.14305,-0.2861 -0.0477,-0.0715 -0.0954,-0.16679 z"
       id="text86"
       aria-label="HL" />
  </g>
</svg>
