<?xml version="1.0" encoding="UTF-8" standalone="no"?>
<!-- Created with Inkscape (http://www.inkscape.org/) -->

<svg
   width="163.6073"
   height="64.203896"
   viewBox="0 0 43.287764 16.98728"
   version="1.1"
   id="svg1"
   xmlns="http://www.w3.org/2000/svg"
   xmlns:svg="http://www.w3.org/2000/svg">
  <defs
     id="defs1" />
  <g
     id="layer1"
     transform="translate(-15.16365,-272.71094)">
    <g
       id="g50"
       style="fill:#000000"
       transform="matrix(1.260091,0,0,1.260091,-68.413559,87.649707)">
      <path
         d="m -9.2369806,185.30785 q -0.066146,-0.0661 -0.115755,-0.14883 -0.049609,-0.0992 -0.082682,-0.24805 -0.2315099,-0.28112 -0.3638014,-0.64492 -0.1322914,-0.3638 -0.1819006,-0.74414 -0.049609,-0.39687 -0.016536,-0.79375 0.033073,-0.39687 0.115755,-0.74414 0.049609,-0.16536 0.082682,-0.34726 0.082682,-0.31419 0.1653643,-0.61185 0.082682,-0.31419 0.2480464,-0.51263 -0.066146,-0.1819 0.016536,-0.39687 0.082682,-0.21498 0.1653643,-0.39688 0.033073,-0.0496 0.049609,-0.0827 0.016536,-0.0496 0.033073,-0.0827 0.1984371,-0.57878 0.3803378,-1.10794 0.1984371,-0.5457 0.3803378,-1.0418 0.3307285,-0.9095 0.6283842,-1.78593 0.3141921,-0.87643 0.5622384,-1.86862 0.1322915,-0.0992 0.23151,-0.13229 0.033073,-0.0165 0.082682,-0.0331 0.049609,-0.0165 0.115755,-0.0165 0.347265,0.1819 0.8102849,0.34727 0.4795563,0.14883 0.8102848,0.14883 l 0.2811193,0.24804 q 0.2149735,0.24805 0.3638014,0.52917 0.1653642,0.26458 0.099219,0.69453 -0.099219,0.14883 -0.1653642,0.1819 -0.099219,0.38034 -0.2149736,0.67799 -0.115755,0.28112 -0.2315099,0.5457 -0.1322915,0.29766 -0.2480464,0.59532 -0.115755,0.29765 -0.1984371,0.7276 -0.099219,0.11575 -0.1322914,0.19843 -0.016536,0.0827 -0.049609,0.16537 -0.033073,0.0992 -0.082682,0.21497 -0.049609,0.0992 -0.1488278,0.1819 -0.066146,0.51263 -0.1984371,0.84336 -0.1322914,0.31419 -0.2645828,0.62839 -0.23151,0.57877 -0.4299471,1.15755 -0.1984371,0.56223 -0.2315099,1.28984 0.1984371,-0.0496 0.3638013,-0.0496 0.2149736,0 0.4134107,0.0661 0.5953113,-0.29765 1.2898412,-0.3638 0.7110663,-0.0661 1.4055962,-0.0827 0.5787749,0 1.0748677,-0.0496 0.1653642,0.11575 0.2149735,0.13229 0.049609,0 0.1653642,0 0.049609,0 0.099219,0 0.049609,0 0.1322914,0.0165 0.23151,0.23151 0.4464835,0.33073 0.2149735,0.0827 0.46301993,0.16536 0.21497353,0.0827 0.41341064,0.1819 0.21497354,0.0827 0.41341065,0.23151 l 0.14882783,0.84336 q 0.13229141,0.1819 0.11575498,0.24805 0,0.13229 -0.0661457,0.23151 l 0.0330729,0.21497 q -0.31419209,0.0661 -0.41341065,0.14883 -0.0992186,0.0661 -0.21497353,0.1819 -0.18190069,0.0165 -0.34726494,0.0165 -0.33072861,0 -0.67799351,0.0992 -0.4960928,-0.1819 -1.0914041,-0.1819 -0.23151,0 -0.4795564,0.0165 -0.2315099,0.0165 -0.4630199,0.0496 -0.2480464,0.0331 -0.4960926,0.0661 -0.2480464,0.0165 -0.4960929,0.0165 -0.198437,0.0331 -0.2811193,0.0496 -0.082682,0.0165 -0.1653642,0.0496 -0.5622385,0.1819 -1.2236955,0.3638 -0.6449206,0.1819 -1.3063776,0.1819 -0.9756492,0 -1.5709605,-0.49609 -0.066146,-0.14883 -0.099219,-0.19844 -0.033073,-0.0496 -0.066146,-0.11575 z"
         id="text48"
         style="font-size:16.9333px;font-family:'Permanent Marker';-inkscape-font-specification:'Permanent Marker, Normal';stroke-width:0.264583"
         transform="matrix(-0.8660254,0.5,0.5,0.8660254,0,0)"
         aria-label="L" />
      <path
         d="m 78.118568,158.83579 q -0.04961,0.0165 -0.06615,-0.0331 -0.01654,-0.0496 -0.01654,-0.0992 0.01654,-0.0496 0.04961,-0.0827 0.04961,-0.0331 0.115755,0 -0.214973,-0.26458 -0.281119,-0.47955 -0.04961,-0.21498 -0.214974,-0.52917 0.04961,-0.0496 0.06615,-0.13229 0.01654,-0.0992 0.04961,-0.1819 0.01654,-0.0827 0.04961,-0.11576 0.04961,-0.0496 0.115755,0.0165 -0.03307,-0.1819 0,-0.29765 0.03307,-0.11576 0.06615,-0.21498 0.04961,-0.0992 0.06615,-0.19844 0.01654,-0.0992 -0.04961,-0.23151 0.314192,-0.42994 0.41341,-0.92604 0.09922,-0.51262 0.115755,-0.92604 0.148828,-0.14882 0.248047,-0.39687 0.115755,-0.24805 0.165364,-0.51263 0.04961,-0.26458 0.04961,-0.51263 0,-0.26458 -0.06615,-0.41341 0.01654,-0.0661 0.06615,-0.0661 0.06615,-0.0165 0.148828,0 0.115755,-0.66146 0.148828,-1.47175 0.04961,-0.81028 0.165364,-1.55442 0.132292,-0.76068 0.413411,-1.32291 0.281119,-0.57878 0.892967,-0.74414 0.115755,0.41341 0.297655,0.7276 0.198438,0.31419 0.413411,0.61185 0.23151,0.29765 0.46302,0.59531 0.23151,0.29765 0.429947,0.66146 -0.01654,0.38033 -0.08268,0.87643 -0.04961,0.49609 -0.148828,1.00872 -0.08268,0.51263 -0.181901,0.99218 -0.08268,0.47956 -0.165364,0.81029 0.01654,0.0827 0.115755,0.11575 0.09922,0.0165 0.03307,0.1819 0.479556,-0.11575 0.992186,-0.21497 0.529165,-0.11575 1.025258,-0.21497 0.512629,-0.11576 0.992185,-0.26459 0.496093,-0.14882 0.92604,-0.3638 0.09922,-0.79375 0.248047,-1.57096 0.148828,-0.77721 0.03307,-1.57096 0.09922,-0.0827 0.165364,-0.19843 0.06615,-0.11576 0.198437,-0.14883 -0.09922,-0.38034 -0.08268,-0.79375 0.01654,-0.42995 0.132291,-0.79375 0.132292,-0.3638 0.380338,-0.62838 0.248046,-0.28112 0.611848,-0.36381 0.214973,0.3142 0.380338,0.678 0.165364,0.3638 0.330728,0.74414 0.165364,0.3638 0.347265,0.69453 0.198437,0.33073 0.496093,0.56224 0.04961,0.57877 0.08268,1.19062 0.03307,0.59531 0.04961,1.24023 -0.148828,0.74414 -0.347265,1.45521 -0.1819,0.69453 -0.264583,1.48827 -0.132291,0.14883 -0.214973,0.36381 -0.08268,0.19843 -0.165364,0.41341 -0.06615,0.19843 -0.165365,0.39687 -0.09922,0.19844 -0.248046,0.33073 0.06615,0.23151 0.01654,0.44648 -0.03307,0.19844 0.115755,0.47956 0.03307,0.51263 -0.132291,0.85989 -0.148828,0.33073 -0.429947,0.57878 -0.264583,0.23151 -0.628384,0.38034 -0.347265,0.13229 -0.69453,0.24804 -0.165364,-0.0992 -0.314192,-0.19844 -0.132292,-0.11575 -0.330729,-0.16536 l 0.08268,-0.14883 q -0.330728,-0.33073 -0.578775,-0.69453 -0.231509,-0.38033 -0.214973,-0.85989 0,-0.0165 0.03307,-0.21497 0.03307,-0.21498 0.06615,-0.44649 0.04961,-0.23151 0.08268,-0.42995 0.04961,-0.21497 0.04961,-0.23151 -0.46302,0.0496 -0.959113,0.21498 -0.496093,0.16536 -0.975649,0.38034 -0.46302,0.19843 -0.87643,0.42994 -0.396875,0.21498 -0.644921,0.3638 0,0.0496 -0.08268,0.28112 -0.08268,0.23151 -0.198437,0.4961 -0.115755,0.24804 -0.264583,0.44648 -0.132292,0.19844 -0.281119,0.1819 0.03307,0.0827 0.06614,0.13229 0.03307,0.0331 0,0.14883 -0.281119,0.0827 -0.512629,0.21497 -0.214973,0.13229 -0.446483,0.21498 -0.23151,0.0992 -0.51263,0.0827 -0.264582,0 -0.64492,-0.19844 0,-0.11575 -0.09922,-0.19844 -0.09922,-0.0992 -0.214973,-0.16536 -0.09922,-0.0661 -0.181901,-0.11575 -0.08268,-0.0496 -0.08268,-0.0992 z"
         id="text49"
         style="font-size:16.9333px;font-family:'Permanent Marker';-inkscape-font-specification:'Permanent Marker, Normal';stroke-width:0.264583"
         aria-label="H" />
      <path
         d="m 135.39407,101.80508 q -0.0661,-0.0662 -0.11576,-0.14883 -0.0496,-0.0992 -0.0827,-0.24805 -0.23151,-0.28112 -0.3638,-0.64492 -0.13229,-0.3638 -0.1819,-0.74414 -0.0496,-0.396872 -0.0165,-0.793747 0.0331,-0.396874 0.11576,-0.744139 0.0496,-0.165364 0.0827,-0.347265 0.0827,-0.314192 0.16536,-0.611848 0.0827,-0.314192 0.24805,-0.512629 -0.0661,-0.1819 0.0165,-0.396874 0.0827,-0.214973 0.16536,-0.396874 0.0331,-0.04961 0.0496,-0.08268 0.0165,-0.04961 0.0331,-0.08268 0.19844,-0.578775 0.38034,-1.107941 0.19844,-0.545702 0.38034,-1.041795 0.33073,-0.909503 0.62838,-1.785934 0.3142,-0.87643 0.56224,-1.868616 0.13229,-0.09922 0.23151,-0.132291 0.0331,-0.01654 0.0827,-0.03307 0.0496,-0.01654 0.11576,-0.01654 0.34726,0.181901 0.81028,0.347265 0.47956,0.148828 0.81029,0.148828 l 0.28112,0.248047 q 0.21497,0.248046 0.3638,0.529165 0.16536,0.264583 0.0992,0.69453 -0.0992,0.148828 -0.16537,0.181901 -0.0992,0.380338 -0.21497,0.677993 -0.11576,0.28112 -0.23151,0.545702 -0.13229,0.297656 -0.24805,0.595312 -0.11575,0.297655 -0.19843,0.727602 -0.0992,0.115755 -0.13229,0.198437 -0.0165,0.08268 -0.0496,0.165365 -0.0331,0.09922 -0.0827,0.214973 -0.0496,0.09922 -0.14882,0.181901 -0.0661,0.512629 -0.19844,0.843358 -0.13229,0.314192 -0.26458,0.628384 -0.23151,0.578775 -0.42995,1.15755 -0.19844,0.562238 -0.23151,1.289841 0.19844,-0.04961 0.3638,-0.04961 0.21497,0 0.41341,0.06614 0.59531,-0.297655 1.28984,-0.363801 0.71107,-0.06615 1.4056,-0.08268 0.57877,0 1.07487,-0.04961 0.16536,0.115755 0.21497,0.132291 0.0496,0 0.16536,0 0.0496,0 0.0992,0 0.0496,0 0.13229,0.01654 0.23151,0.23151 0.44649,0.330729 0.21497,0.08268 0.46302,0.165364 0.21497,0.08268 0.41341,0.181901 0.21497,0.08268 0.41341,0.231505 l 0.14883,0.84336 q 0.13229,0.1819 0.11575,0.24805 0,0.13229 -0.0661,0.23151 l 0.0331,0.21497 q -0.31419,0.0662 -0.41341,0.14883 -0.0992,0.0661 -0.21498,0.1819 -0.1819,0.0165 -0.34726,0.0165 -0.33073,0 -0.67799,0.0992 -0.4961,-0.1819 -1.09141,-0.1819 -0.23151,0 -0.47955,0.0165 -0.23151,0.0165 -0.46302,0.0496 -0.24805,0.0331 -0.4961,0.0661 -0.24804,0.0165 -0.49609,0.0165 -0.19844,0.0331 -0.28112,0.0496 -0.0827,0.0165 -0.16536,0.0496 -0.56224,0.1819 -1.2237,0.3638 -0.64492,0.1819 -1.30638,0.1819 -0.97565,0 -1.57096,-0.49609 -0.0661,-0.14883 -0.0992,-0.19844 -0.0331,-0.0496 -0.0661,-0.11575 z"
         id="text50"
         style="font-size:16.9333px;font-family:'Permanent Marker';-inkscape-font-specification:'Permanent Marker, Normal';stroke-width:0.264583"
         transform="rotate(30)"
         aria-label="L" />
    </g>
  </g>
</svg>
